HIERARCHY
ROOT Hips
{
  OFFSET -35.2597 29.1586 114.425
  CHANNELS 6 Xposition Yposition Zposition Zrotation Xrotation Yrotation
  JOINT LeftUpLeg
  {
    OFFSET 8.64259 1.95398 -2.38835
    CHANNELS 3 Zrotation Xrotation Yrotation
    JOINT LeftLeg
    {
      OFFSET 43.7702 0 0
      CHANNELS 3 Zrotation Xrotation Yrotation
      JOINT LeftFoot
      {
        OFFSET 40.6238 0 0
        CHANNELS 3 Zrotation Xrotation Yrotation
        JOINT LeftToeBase
        {
          OFFSET 12.7242 0 0
          CHANNELS 3 Zrotation Xrotation Yrotation
          End Site
          {
            OFFSET 0 0 0
          }
        }
      }
    }
  }
  JOINT RightUpLeg
  {
    OFFSET -8.2249 1.95398 -2.59336
    CHANNELS 3 Zrotation Xrotation Yrotation
    JOINT RightLeg
    {
      OFFSET 43.5653 0 0
      CHANNELS 3 Zrotation Xrotation Yrotation
      JOINT RightFoot
      {
        OFFSET 40.6238 0 0
        CHANNELS 3 Zrotation Xrotation Yrotation
        JOINT RightToeBase
        {
          OFFSET 12.7242 0 0
          CHANNELS 3 Zrotation Xrotation Yrotation
          End Site
          {
            OFFSET 0 0 0
          }
        }
      }
    }
  }
  JOINT Spine
  {
    OFFSET 0.165834 0.87714 6.61349
    CHANNELS 3 Zrotation Xrotation Yrotation
    JOINT Spine1
    {
      OFFSET 7.38963 1.71661e-005 0
      CHANNELS 3 Zrotation Xrotation Yrotation
      JOINT Spine2
      {
        OFFSET 11.9445 1.14441e-005 0
        CHANNELS 3 Zrotation Xrotation Yrotation
        JOINT Spine3
        {
          OFFSET 14.7254 4.19617e-005 0
          CHANNELS 3 Zrotation Xrotation Yrotation
          JOINT Spine4
          {
            OFFSET 10.9679 0 0
            CHANNELS 3 Zrotation Xrotation Yrotation
            JOINT RightShoulder
            {
              OFFSET 2.46616 -1.6653 3.69651
              CHANNELS 3 Zrotation Xrotation Yrotation
              JOINT RightArm
              {
                OFFSET 13.0012 0 0
                CHANNELS 3 Zrotation Xrotation Yrotation
                JOINT RightForeArm
                {
                  OFFSET 28.7848 1.62311e-005 0
                  CHANNELS 3 Zrotation Xrotation Yrotation
                  JOINT RightHand
                  {
                    OFFSET 26.5688 1.62095e-005 0
                    CHANNELS 3 Zrotation Xrotation Yrotation
                    End Site
                    {
                      OFFSET 0 0 0
                    }
                  }
                }
              }
            }
            JOINT LeftShoulder
            {
              OFFSET 2.38034 -1.29275 -3.7523
              CHANNELS 3 Zrotation Xrotation Yrotation
              JOINT LeftArm
              {
                OFFSET 16.3182 6.07031e-005 0
                CHANNELS 3 Zrotation Xrotation Yrotation
                JOINT LeftForeArm
                {
                  OFFSET 27.0901 0 0
                  CHANNELS 3 Zrotation Xrotation Yrotation
                  JOINT LeftHand
                  {
                    OFFSET 24.5451 1.51738e-005 0
                    CHANNELS 3 Zrotation Xrotation Yrotation
                    End Site
                    {
                      OFFSET 0 0 0
                    }
                  }
                }
              }
            }
            JOINT Neck
            {
              OFFSET 5.0226 -0.0266342 0
              CHANNELS 3 Zrotation Xrotation Yrotation
              JOINT Head
              {
                OFFSET 6.69364 2.86102e-005 0
                CHANNELS 3 Zrotation Xrotation Yrotation
                End Site
                {
                  OFFSET 0 0 0
                }
              }
            }
          }
        }
      }
    }
  }
}
MOTION
Frames:	9
Frame Time:	0.0416667
-208.02 98.9983 -176.671 -99.4266 42.66 -81.7084 -173.369 5.01763 89.8375 -21.3176 5.80482 -1.48999 67.9114 6.00336 2.01622 22.0923 -2.21773 -2.08412 170.048 3.08135 86.2926 -20.3155 -3.52495 2.52687 65.5049 -3.5421 -1.86982 20.815 0.802592 7.04668 0.300276 8.65375 -89.8803 9.56587 0.652695 0.187328 -2.10492 0.660306 0.158414 -24.641 0.566198 0.374831 -4.62835 0.566218 0.37483 87.7313 -34.444 -109.364 43.4345 7.84065 -3.29382 -4.41558 -26.4349 -5.03284 -19.4037 5.72172 -38.863 -85.2176 -58.6141 86.9749 -14.2304 -17.9677 -15.5195 3.96822 46.4379 -5.0463 -0.153895 -0.450843 -22.8175 -25.873 3.30251 0.557402 -12.5148 3.40849 0.375949 
-207.659 98.9408 -176.825 -99.8874 43.5375 -82.0496 -173.709 4.9686 89.1533 -21.4699 5.01978 -1.37421 67.7496 5.94288 2.29097 21.5526 -3.90485 0.382862 170.591 3.06152 86.1737 -20.6375 -3.64074 1.75838 66.3124 -3.9964 -1.19405 21.3004 1.16573 5.56776 0.425544 8.57007 -89.869 9.73364 0.90761 0.187558 -1.937 0.91497 0.147421 -24.4742 0.809256 0.45167 -4.46156 0.809266 0.451668 88.9269 -33.9733 -107.329 44.0617 7.26252 -4.59645 -5.42662 -43.814 -5.53407 -23.0308 3.58736 -23.2076 -85.9147 -60.4169 86.2396 -14.1183 -18.0662 -16.5025 3.97979 46.5801 -5.05891 2.51873 -0.721602 -18.9278 -25.0765 2.91289 0.738168 -14.102 2.96401 0.819448 
-206.946 98.9114 -177.621 -101.363 42.5388 -80.7547 -173.013 4.26908 90.3681 -22.392 6.63216 -1.30398 68.0371 6.23208 2.17218 22.5344 -3.32238 0.275471 170.962 1.61055 87.1364 -20.8469 -2.22024 1.73385 66.9422 -4.26326 -0.739859 20.933 1.27343 5.65509 0.31537 8.63246 -90.0159 9.60902 0.621635 -0.0791519 -2.0618 0.617553 -0.106439 -24.5981 0.616681 0.111341 -4.58544 0.616678 0.111338 89.1039 -34.081 -106.959 43.2813 7.60871 -4.50216 -5.43377 -43.9142 -5.53135 -22.7221 3.86922 -24.8488 -85.9384 -61.1677 86.298 -14.8106 -17.7708 -17.6081 4.05181 47.5489 -5.13121 1.98702 -0.665116 -19.378 -24.9725 2.92409 2.074 -13.6273 3.08981 0.748916 
-206.248 98.8901 -178.228 -101.72 42.8175 -80.7507 -172.804 4.1319 90.7808 -22.3557 6.44664 -1.29399 67.7277 6.11349 2.07267 23.3537 -2.53629 -0.373336 171.056 1.70818 87.3536 -21.5045 -2.41617 1.77734 67.5801 -4.50837 -0.743789 19.8613 1.60781 5.84734 0.263795 8.58672 -90.0472 9.7008 0.504583 -0.133086 -1.97005 0.498269 -0.155185 -24.506 0.521267 0.0247221 -4.49334 0.52126 0.0247063 88.1495 -34.2491 -108.67 42.364 8.15946 -3.77705 -5.17286 -40.0937 -5.37583 -23.6092 4.11553 -25.2641 -86.5679 -62.0239 85.5684 -14.8488 -17.763 -17.8583 4.23891 49.8597 -5.32114 2.07298 -0.722337 -20.5369 -24.3867 3.4137 3.09009 -14.6422 3.6983 0.326006 
-205.617 99.0281 -178.816 -102.013 43.6731 -80.9573 -172.811 3.44565 90.7692 -21.3128 5.62511 -1.29494 67.4524 5.8009 1.43663 23.0269 -3.29968 0.693101 171.283 1.41239 87.4877 -20.8878 -3.1108 1.5488 67.5991 -4.62432 -0.993047 19.3505 1.79963 5.85622 0.279187 8.53085 -90.0357 9.8125 0.54038 -0.113903 -1.85834 0.534868 -0.137586 -24.3944 0.549641 0.053774 -4.38175 0.549637 0.0537742 89.3617 -33.0328 -106.858 45.2666 6.76228 -4.57964 -5.16483 -39.9708 -5.3724 -23.7941 3.77541 -23.4841 -86.8568 -62.3566 85.229 -14.7435 -17.8017 -17.5086 4.26009 50.1018 -5.34288 1.31603 -0.642838 -21.3971 -24.2521 3.39001 2.22066 -13.7539 3.34898 2.70298 
-205.047 99.1409 -179.223 -101.921 44.2616 -81.0965 -173.219 3.05723 90.8397 -20.1209 4.71552 -0.886014 66.8447 5.19388 1.08714 23.9358 -2.80562 0.665024 171.587 1.32604 87.8938 -20.3298 -3.141 1.46477 67.6192 -4.76839 -0.926416 19.2011 1.85557 5.85875 0.229119 8.4556 -89.9972 9.96279 0.457977 -0.0319567 -1.70808 0.456134 -0.0520828 -24.2439 0.446399 0.107162 -4.2312 0.446397 0.107164 87.9328 -35.515 -108.578 42.2019 8.25202 -3.64961 -5.18265 -40.2473 -5.38235 -22.5759 3.66001 -23.9349 -86.8049 -61.3016 85.1602 -15.7646 -17.2507 -15.9777 4.18835 49.2504 -5.27009 1.80337 -0.683733 -20.6089 -22.5366 4.17477 2.13542 -15.6108 4.16805 1.88742 
-204.593 99.2221 -179.739 -101.621 44.503 -81.6247 -173.224 2.9095 90.9171 -19.3421 4.62648 -0.927991 66.3733 4.69965 0.856366 24.3376 -2.76888 0.982963 171.657 1.48363 87.9832 -20.2159 -3.18046 1.4581 67.6883 -4.91985 -0.859939 19.272 1.90218 5.66937 0.149083 8.38261 -90.02 10.1088 0.288057 -0.0635623 -1.56216 0.284973 -0.0761744 -24.0976 0.293851 0.0259539 -4.08491 0.293832 0.0259443 89.8548 -34.9849 -105.258 43.6347 7.4359 -4.61805 -5.29042 -41.8685 -5.44418 -22.6725 3.31427 -22.1089 -86.9448 -61.8504 85.0466 -15.7782 -17.2144 -14.9428 4.20107 49.3776 -5.28413 1.07353 -0.534095 -19.0761 -21.5417 4.35224 2.28529 -15.4386 4.23011 2.7386 
-204.299 99.226 -180.23 -101.565 44.6152 -81.7553 -172.98 2.74772 91.295 -18.9882 5.09443 -1.0672 66.2169 4.64996 1.03652 24.7051 -2.5471 0.929166 171.673 1.44961 88.2001 -20.3283 -3.12998 1.57069 67.9936 -5.09481 -0.890565 18.6757 1.98039 6.0523 0.0928836 8.33934 -90.0348 10.1952 0.169249 -0.0833703 -1.47571 0.165411 -0.0907435 -24.011 0.186467 -0.0286513 -3.99831 0.186482 -0.0286488 88.2427 -36.1936 -107.768 42.9726 7.87675 -3.91878 -5.26094 -41.4329 -5.427 -22.5512 3.08165 -21.038 -86.7807 -61.785 85.2557 -15.6845 -17.2536 -14.774 4.29506 50.5328 -5.37632 -0.143267 -0.377469 -19.009 -21.5895 4.95565 2.53684 -15.7264 4.80153 3.18626 
-204.211 99.2986 -180.788 -101.26 44.9075 -81.9001 -173.086 2.48533 91.4822 -18.3393 4.84336 -0.824083 65.999 4.4724 0.919198 25.0242 -2.5768 1.29546 171.791 1.2076 88.5248 -19.7962 -3.13011 1.6533 68.0592 -5.1634 -0.81071 18.3469 2.14027 5.96646 0.171876 8.22777 -89.9939 10.4184 0.34511 -0.0181337 -1.25254 0.343965 -0.0333055 -23.788 0.3346 0.0864241 -3.7754 0.334602 0.0864247 88.9302 -34.8824 -106.992 45.0479 7.24656 -3.0761 -5.22434 -40.8817 -5.40606 -22.4798 3.18483 -21.6128 -86.8357 -59.7726 84.9155 -17.6115 -16.3425 -14.0337 4.14805 48.8648 -5.22525 1.99905 -0.626118 -18.3341 -20.6757 6.42093 0.294199 -17.7699 5.72201 6.02094 
